<svg
  viewBox="0 0 480 480"
  height="100px"
  xmlns="http://www.w3.org/2000/svg"
>
  <path
    d="m271.065 235.752 206.792-222.3c3.01-3.234 2.829-8.296-.404-11.306-1.481-1.379-3.429-2.146-5.453-2.145-22.607.053-44.247 9.178-60.067 25.327l-173.423 177.873-96.853-96.853c-3.124-3.124-8.189-3.124-11.314 0l-24 24c-3.124 3.124-3.124 8.189 0 11.314l33.257 33.257c-12.413 10.023-19.62 25.128-19.6 41.082h16c-.013-10.825 4.746-21.105 13.007-28.1l.524 1.048c6.333 12.58 7.37 27.17 2.88 40.519l15.178 5.06c3.059-9.118 4.175-18.776 3.275-28.352l32.779 32.779-75.715 77.657-10.271-10.271-11.314 11.314 10.343 10.346-114.343 114.343c-3.124 3.124-3.124 8.189 0 11.314l24 24c3.124 3.124 8.189 3.124 11.314 0l66.343-66.343v60.686c0 4.418 3.582 8 8 8h32c4.418 0 8-3.582 8-8v-10.718c7.411-2.604 15.449-2.841 23-.676l11.066 3.163c18.107 5.185 37.538 2.885 53.934-6.384 16.395 9.272 35.826 11.572 53.933 6.384l11.067-3.163c7.551-2.165 15.589-1.929 23 .675v10.719c0 4.418 3.582 8 8 8h32c4.418 0 8-3.582 8-8v-60.686l66.343 66.343c3.124 3.124 8.189 3.124 11.314 0l24-24c3.124-3.124 3.124-8.189 0-11.314zm-127.751-79.751 12.686-12.686 8.686 8.686-12.686 12.687zm20 20 12.686-12.686 8.686 8.686-12.686 12.686zm-27.314-52.687 8.686 8.687-12.686 12.686-8.687-8.686zm47.314 72.687 12.686-12.686 31.34 31.339-12.526 12.847zm240.075-159.5c7.509-7.675 16.727-13.466 26.9-16.9l-298.497 320.879-12.549-12.55zm-391.389 424.187-12.687-12.687 108.687-108.687 12.686 12.687zm104 3.313h-16v-64h16zm164.6-18.778-11.065 3.162c-15.337 4.394-31.831 1.819-45.1-7.04-2.687-1.792-6.189-1.792-8.876 0-13.269 8.859-29.763 11.434-45.1 7.04l-11.059-3.162c-8.929-2.559-18.368-2.766-27.4-.6v-28.622h176v28.621c-9.032-2.166-18.471-1.959-27.4.601zm59.4 18.778h-16v-64h16zm-24-80c-4.418 0-8 3.582-8 8v8h-176v-8c0-4.418-3.582-8-8-8h-12.686l20.686-20.686 10.343 10.343 11.314-11.314-10.544-10.543 73.914-79.458 111.659 111.658zm112 76.687-200.068-200.068 12.228-13.145 200.527 200.526z"
  />
</svg>
